<svg xmlns="http://www.w3.org/2000/svg" width="120" height="120" viewBox="0 0 120 120" fill="none">
<g clip-path="url(#clip0_25_5)">
<path d="M54 3.4641C57.7128 1.32051 62.2872 1.32051 66 3.4641L105.962 26.5359C109.674 28.6795 111.962 32.641 111.962 36.9282V83.0718C111.962 87.359 109.674 91.3205 105.962 93.4641L66 116.536C62.2872 118.679 57.7128 118.679 54 116.536L14.0385 93.4641C10.3257 91.3205 8.03848 87.359 8.03848 83.0718V36.9282C8.03848 32.641 10.3257 28.6795 14.0385 26.5359L54 3.4641Z" fill="#0080FF"/>
<mask id="mask0_25_5" style="mask-type:alpha" maskUnits="userSpaceOnUse" x="8" y="1" width="104" height="118">
<path d="M54 3.4641C57.7128 1.32051 62.2872 1.32051 66 3.4641L105.962 26.5359C109.674 28.6795 111.962 32.641 111.962 36.9282V83.0718C111.962 87.359 109.674 91.3205 105.962 93.4641L66 116.536C62.2872 118.679 57.7128 118.679 54 116.536L14.0385 93.4641C10.3257 91.3205 8.03848 87.359 8.03848 83.0718V36.9282C8.03848 32.641 10.3257 28.6795 14.0385 26.5359L54 3.4641Z" fill="#0080FF"/>
</mask>
<g mask="url(#mask0_25_5)">
<path d="M40 101.5C40 109.508 33.5081 116 25.5 116C17.4919 116 11 109.508 11 101.5C11 93.4919 17.4919 87 25.5 87C33.5081 87 40 93.4919 40 101.5Z" fill="white"/>
<path d="M58 98.5C58 106.508 51.5081 113 43.5 113C35.4919 113 29 106.508 29 98.5C29 90.4919 35.4919 84 43.5 84C51.5081 84 58 90.4919 58 98.5Z" fill="white"/>
<path d="M74 105.5C74 113.508 67.5081 120 59.5 120C51.4919 120 45 113.508 45 105.5C45 97.4919 51.4919 91 59.5 91C67.5081 91 74 97.4919 74 105.5Z" fill="white"/>
<path d="M96 103C96 111.837 88.8366 119 80 119C71.1634 119 64 111.837 64 103C64 94.1634 71.1634 87 80 87C88.8366 87 96 94.1634 96 103Z" fill="white"/>
<path d="M120 87.5C120 96.0604 113.06 103 104.5 103C95.9396 103 89 96.0604 89 87.5C89 78.9396 95.9396 72 104.5 72C113.06 72 120 78.9396 120 87.5Z" fill="white"/>
</g>
<path d="M59.8982 55.5854V52.6181V49.6509V18C59.8982 18 55.2831 19.9652 52.1448 29.3002C50.3394 34.6704 49.5204 39.6846 49.0606 44.9527C48.7651 48.3381 49.6339 55.8327 49.8723 59.5418L51 61L52 62L54 63H56H59.8982V57.5636V55.5854Z" fill="white"/>
<path d="M59.8982 55.5854V52.6181V49.6509V18C59.8982 18 55.2831 19.9652 52.1448 29.3002C50.3394 34.6704 49.5204 39.6846 49.0606 44.9527C48.7651 48.3381 49.6339 55.8327 49.8723 59.5418L51 61L52 62L54 63H56H59.8982V57.5636V55.5854Z" fill="url(#paint0_linear_25_5)"/>
<path d="M59.8982 55.5854V52.6181V49.6509L59.8982 18C59.8982 18 64.6414 19.9652 67.8669 29.3002C69.7224 34.6704 70.5642 39.6846 71.0368 44.9527C71.3405 48.3381 70.2557 55.8327 70.0106 59.5418V60L69.1008 61L68 62L66 63H64H59.8982L59.8982 57.5636V55.5854Z" fill="white"/>
<path d="M59.8982 55.5854V52.6181V49.6509L59.8982 18C59.8982 18 64.6414 19.9652 67.8669 29.3002C69.7224 34.6704 70.5642 39.6846 71.0368 44.9527C71.3405 48.3381 70.2557 55.8327 70.0106 59.5418V60L69.1008 61L68 62L66 63H64H59.8982L59.8982 57.5636V55.5854Z" fill="url(#paint1_linear_25_5)"/>
<circle cx="60.1" cy="28.1" r="3.1" fill="#004E9C"/>
<circle cx="60" cy="28" r="3" fill="#0080FF"/>
<path d="M50.0602 58.0716C50.206 60.0764 49.0971 61.9258 47.4938 63.1381C44.4459 65.4426 42.1451 68.6344 40.9345 72.313C40.8797 72.5219 40.7548 72.7057 40.5806 72.8334C40.4064 72.9612 40.1937 73.0251 39.9779 73.0146C39.8415 73.0062 39.7084 72.9682 39.5882 72.9032C39.4679 72.8381 39.3632 72.7477 39.2814 72.6381C39.1875 72.5114 39.1269 72.3631 39.1052 72.2069C38.302 66.5132 37.5632 54.8815 43.1499 47.1766C45.2765 44.2435 49.1978 46.2141 49.4606 49.8274L50.0602 58.0716Z" fill="#FEDCF6"/>
<path d="M69.5703 58.0716C69.4245 60.0764 70.5334 61.9258 72.1368 63.1381C75.1846 65.4426 77.4854 68.6344 78.696 72.313C78.7508 72.5219 78.8758 72.7057 79.0499 72.8334C79.2241 72.9612 79.4369 73.0251 79.6526 73.0146C79.7891 73.0062 79.9221 72.9682 80.0424 72.9032C80.1626 72.8381 80.2673 72.7477 80.3491 72.6381C80.443 72.5114 80.5036 72.3631 80.5253 72.2069C81.3285 66.5132 82.0673 54.8815 76.4807 47.1766C74.354 44.2435 70.4327 46.2141 70.1699 49.8274L69.5703 58.0716Z" fill="#FEDCF6"/>
<path d="M54.4612 63C57.5917 63 59.759 63 65.0567 63C70.8873 63 66.5016 79.798 65.0567 79.798C63.6119 79.798 59.759 86.5714 59.759 86.5714C59.759 86.5714 56.6285 79.798 54.4612 79.798C52.2939 79.798 49.0521 63 54.4612 63Z" fill="#E36018"/>
<path d="M55.381 63C57.967 63 59.7574 63 64.1338 63C68.9503 63 65.3274 75.5985 64.1338 75.5985C62.9402 75.5985 59.7574 80.6786 59.7574 80.6786C59.7574 80.6786 57.1713 75.5985 55.381 75.5985C53.5906 75.5985 50.9126 63 55.381 63Z" fill="#FFAE44"/>
<path d="M56.7606 63C58.53 63 59.755 63 62.7494 63C66.0449 63 63.5661 71.399 62.7494 71.399C61.9328 71.399 59.755 74.7857 59.755 74.7857C59.755 74.7857 57.9856 71.399 56.7606 71.399C55.5357 71.399 53.7033 63 56.7606 63Z" fill="#FCE25E"/>
</g>
<defs>
<linearGradient id="paint0_linear_25_5" x1="54.4491" y1="18" x2="54.4491" y2="59.5418" gradientUnits="userSpaceOnUse">
<stop stop-color="#F4F3F9"/>
<stop offset="1" stop-color="#FEAEEA" stop-opacity="0.4"/>
</linearGradient>
<linearGradient id="paint1_linear_25_5" x1="65.4941" y1="18" x2="65.4941" y2="59.5418" gradientUnits="userSpaceOnUse">
<stop stop-color="#F4F3F9"/>
<stop offset="1" stop-color="#FEAEEA" stop-opacity="0.4"/>
</linearGradient>
<clipPath id="clip0_25_5">
<rect width="120" height="120" fill="white"/>
</clipPath>
</defs>
</svg>